<svg xmlns="http://www.w3.org/2000/svg" viewBox="0 0 177.8 188.5"><style type="text/css">  
	.st0{fill:#010101;}
	.st1{fill:none;stroke:#010101;stroke-width:4;stroke-miterlimit:10;}
	.st2{fill:none;stroke:#010101;stroke-width:5;stroke-miterlimit:10;}
	.st3{fill:none;stroke:#010101;stroke-width:5;stroke-linecap:round;stroke-miterlimit:10;}
	.st4{fill:#FFFFFF;}
</style><path class="st4" d="M63.1 113.7v5.1l5.5-1.7v-5.1L63.1 113.7zM99.4 58.8v-36c0-3.9-3.2-7.1-7.1-7.1h-9.1c-3.9 0-7.1 3.2-7.1 7.1v36c-7.9 4.3-13 12.6-13 21.7v27.5c0.1 0 0.2 0 0.2 0l5.3-1.6v-12h38.2v30.3H70.5c-1.6 3.7-4.1 6.6-7.4 8.2v13c0 6 4.9 10.9 10.9 10.9h27.4c6 0 10.9-4.9 10.9-10.9V80.5C112.4 71.4 107.3 63.1 99.4 58.8zM106.9 145.8c0 3-2.4 5.4-5.4 5.4H74c-3 0-5.4-2.4-5.4-5.4v-15.8h38.2V145.8zM81.6 22.8c0-0.9 0.7-1.6 1.6-1.6h9.1c0.8 0 1.6 0.7 1.6 1.6v16.1H81.6V22.8zM106.9 88.8H68.6v-8.3c0-7.5 4.5-14.4 11.3-17.5 1-0.4 1.6-1.4 1.6-2.5V44.4h12.3v16.1c0 1.1 0.6 2.1 1.6 2.5 6.9 3.1 11.3 9.9 11.3 17.5V88.8z"/><path class="st4" d="M88.1 160.5c-0.2-0.8-0.9-1.4-1.6-1.6l-5.8-2 -11.4-4 -4.6-15.2c1.4-0.6 2.7-1.5 3.9-2.5 1.7-1.3 3.1-3 4.4-5 1.1-1.7 2-3.5 2.7-5.5 0 0 0-0.1 0.1-0.2 1.3-3.6 1.9-7.6 1.8-11.7v-0.1c-0.1-3.6-0.7-7.3-1.8-11 -0.4-1.3-1.8-2-3.1-1.6l-4.1 1.2 -5.5 1.7 -1.1 0.3 -0.1 0c-1.3 0.4-2 1.8-1.6 3 0.2 0.8 0.9 1.4 1.7 1.6 0.4 0.1 0.7 0.1 1.1 0 0.1 0 0.2 0 0.2 0l5.3-1.6 3.1-0.9c0.4 1.9 0.7 3.7 0.9 5.5l-3.9 1.2 -5.5 1.7 -1.1 0.3 -23.3 7.1c-0.9-1.6-1.7-3.3-2.3-5l8.3-2.5c1.3-0.4 2-1.8 1.6-3s-1.8-2-3-1.6l-10.8 3.3c-1.3 0.4-2 1.8-1.6 3 1.1 3.7 2.7 7.1 4.6 10.1 0 0 0 0.1 0.1 0.1 2.2 3.5 4.9 6.5 8 8.8 5.2 4 11 5.6 16.5 4.7l2 6.6 2.6 8.7 -2.6 3.5 -8.4 11.2c-0.6 0.9-0.6 2 0 2.9 0.6 0.9 1.7 1.2 2.7 0.9l22.5-6.8 7.7-2.3C87.8 163.1 88.5 161.7 88.1 160.5zM61 133.7c-6.7 2-14.1-1.5-19.5-8.3l20.5-6.2 1.1-0.3 5.5-1.7 3.9-1.2c-0.2 3.1-1 6.1-2.1 8.6 -1.6 3.7-4.1 6.6-7.4 8.2 -0.4 0.2-0.7 0.4-1.1 0.5C61.7 133.5 61.3 133.6 61 133.7zM68.2 157.5L78 161l-16 4.8L68.2 157.5z"/><path class="st4" d="M54 110.7c1.3-0.4 2-1.8 1.6-3 -0.4-1.3-1.8-2-3-1.6 -1.3 0.4-2 1.8-1.6 3C51.3 110.4 52.7 111.1 54 110.7z"/><path class="st4" d="M132.9 128.9c-0.6 0-1.2-0.2-1.7-0.6 -1-0.9-1.1-2.5-0.2-3.5 7.8-8.7 12.1-20 12.1-31.7 0-12.9-5.1-25-14.3-34 -1-1-1-2.6 0-3.5 1-1 2.6-1 3.5 0 10.2 10 15.8 23.4 15.8 37.6 0 13-4.7 25.4-13.3 35.1C134.3 128.7 133.6 128.9 132.9 128.9z"/><path class="st4" d="M33 102.3c-1.2 0-2.2-0.8-2.5-2 -0.6-3.2-0.9-6.4-0.9-9.7 0-13 4.7-25.4 13.3-35.1 0.9-1 2.5-1.1 3.5-0.2s1.1 2.5 0.2 3.5c-7.8 8.7-12.1 20-12.1 31.7 0 2.9 0.3 5.9 0.8 8.8 0.3 1.4-0.6 2.7-2 2.9C33.3 102.3 33.2 102.3 33 102.3z"/></svg>