<svg xmlns="http://www.w3.org/2000/svg" viewBox="0 0 177.8 188.5"><style type="text/css">  
	.st0{fill:#010101;}
	.st1{fill:none;stroke:#010101;stroke-width:4;stroke-miterlimit:10;}
	.st2{fill:none;stroke:#010101;stroke-width:5;stroke-miterlimit:10;}
	.st3{fill:none;stroke:#010101;stroke-width:5;stroke-linecap:round;stroke-miterlimit:10;}
	.st4{fill:#FFFFFF;}
</style><path d="M100.6 57.1v-36c0-3.9-3.2-7.1-7.1-7.1h-9.1c-3.9 0-7.1 3.2-7.1 7.1v36c-7.9 4.3-13 12.6-13 21.7v27.5c0.1 0 0.2 0 0.2 0l5.3-1.6v-12H108v30.3H71.6c-1.6 3.7-4.1 6.6-7.4 8.2v13c0 6 4.9 10.9 10.9 10.9h27.4c6 0 10.9-4.9 10.9-10.9V78.8C113.5 69.6 108.5 61.3 100.6 57.1zM108 144.1c0 3-2.4 5.4-5.4 5.4H75.2c-3 0-5.4-2.4-5.4-5.4v-15.8H108V144.1zM82.8 21.1c0-0.9 0.7-1.6 1.6-1.6h9.1c0.8 0 1.6 0.7 1.6 1.6v16.1H82.8V21.1zM108 87.1H69.8v-8.3c0-7.5 4.5-14.4 11.4-17.5 1-0.4 1.6-1.4 1.6-2.5V42.7H95v16.1c0 1.1 0.6 2.1 1.6 2.5 6.9 3.1 11.3 9.9 11.3 17.5V87.1zM69.8 110.3l-5.5 1.7v5.1l5.5-1.7V110.3z"/><path d="M89.3 158.7c-0.2-0.8-0.9-1.4-1.6-1.6l-5.8-2 -11.4-4 -4.6-15.2c1.4-0.6 2.7-1.5 3.9-2.5 1.7-1.3 3.2-3 4.4-5 1.1-1.7 2-3.5 2.7-5.5 0 0 0-0.1 0.1-0.2 1.3-3.6 1.9-7.6 1.8-11.7v-0.1c-0.1-3.6-0.7-7.3-1.8-11 -0.4-1.3-1.8-2-3-1.6l-4.1 1.2 -5.5 1.7 -1.2 0.3c-1.3 0.4-2 1.8-1.6 3 0.4 1.2 1.6 1.9 2.8 1.7 0.1 0 0.2 0 0.2 0l5.3-1.6 3.1-0.9c0.4 1.9 0.7 3.7 0.9 5.5l-3.9 1.2 -5.5 1.7 -24.5 7.4c-0.9-1.6-1.7-3.3-2.3-5l8.3-2.5c1.3-0.4 2-1.8 1.6-3s-1.8-2-3-1.6l-10.8 3.3c-1.3 0.4-2 1.8-1.6 3 1.1 3.7 2.7 7.1 4.6 10.1 0 0 0 0.1 0.1 0.1 2.2 3.5 4.9 6.5 8 8.8 5.2 4 11 5.6 16.5 4.7l4.6 15.2 -11 14.7c-0.6 0.9-0.6 2 0 2.9 0.6 0.9 1.7 1.2 2.7 0.9l30.2-9.2C89 161.4 89.7 160 89.3 158.7zM42.7 123.7l21.6-6.6 5.5-1.7 3.9-1.2c-0.2 3.1-1 6.1-2.1 8.6 -1.6 3.7-4.1 6.6-7.4 8.2 -0.7 0.4-1.4 0.6-2.1 0.9C55.5 134 48.1 130.5 42.7 123.7zM63.2 164.1l6.2-8.3 9.8 3.5L63.2 164.1z"/><path d="M55.2 109c1.3-0.4 2-1.8 1.6-3 -0.4-1.3-1.8-2-3-1.6 -1.3 0.4-2 1.8-1.6 3C52.5 108.7 53.9 109.4 55.2 109z"/><path d="M88.9 174.5c-12.4 0-24.6-3.1-35.4-9 -24-13-38.9-38.1-38.9-65.3 0-41 33.3-74.3 74.3-74.3s74.3 33.3 74.3 74.3c0 27.5-15.1 52.6-39.3 65.6C113.2 171.5 101.1 174.5 88.9 174.5zM88.9 30.9c-38.2 0-69.3 31.1-69.3 69.3 0 25.4 13.9 48.8 36.3 60.9 10.1 5.5 21.5 8.4 33 8.4 11.4 0 22.6-2.8 32.6-8.1 22.6-12.1 36.7-35.5 36.7-61.2C158.2 62 127.1 30.9 88.9 30.9z"/></svg>